<svg version="1.1" id="Layer_1" xmlns="http://www.w3.org/2000/svg" xmlns:xlink="http://www.w3.org/1999/xlink" x="0px" y="0px"
	 width="266" viewBox="0 0 266 73" enable-background="new 0 0 2000 1500" xml:space="preserve">
<path fill="none" opacity="1.000000" stroke="none" 
	d="
M1876.000000,1501.000000 
	C1250.666870,1501.000000 625.833679,1501.000000 1.000419,1501.000000 
	C1.000279,1001.000305 1.000279,501.000671 1.000140,1.000755 
	C667.666138,1.000503 1334.332275,1.000503 2000.998779,1.000252 
	C2000.999268,500.999298 2000.999268,1000.998596 2000.999634,1500.999023 
	C1959.500000,1501.000000 1918.000000,1501.000000 1876.000000,1501.000000 
M692.304504,809.889099 
	C684.472168,805.906555 683.138672,798.730408 683.126526,790.985718 
	C683.089478,767.344788 683.116516,743.703674 683.099060,720.062683 
	C683.097778,718.316040 682.941101,716.569519 682.853455,714.756226 
	C672.055237,714.756226 661.794739,714.756226 651.651550,714.756226 
	C651.401245,715.330566 651.162109,715.623230 651.162170,715.915894 
	C651.166931,743.216675 650.416321,770.546448 651.434875,797.809937 
	C652.404602,823.763550 667.173828,837.395325 691.773865,836.933472 
	C704.107727,836.841003 714.754761,832.648621 723.613708,822.996399 
	C724.135193,827.397949 724.557617,830.963013 724.976440,834.497559 
	C735.104675,834.497559 744.855103,834.497559 754.741821,834.497559 
	C754.741821,794.422974 754.741821,754.689270 754.741821,714.747925 
	C744.059387,714.747925 733.649475,714.747925 722.823853,714.747925 
	C722.823853,716.889038 722.823853,718.700684 722.823853,720.512390 
	C722.824097,744.836243 722.561096,769.164673 722.976074,793.481445 
	C723.110229,801.339233 719.331238,805.592468 713.038635,808.481628 
	C706.617249,811.429871 699.826416,811.496033 692.304504,809.889099 
M1638.742798,665.939880 
	C1638.715210,720.657532 1638.687500,775.375244 1638.660522,830.092896 
	C1638.660400,830.425537 1638.694702,830.760254 1638.667847,831.090454 
	C1638.438965,833.911499 1639.798218,834.910095 1642.532349,834.835999 
	C1648.679443,834.669434 1654.831177,834.673035 1661.871582,834.771240 
	C1662.869751,834.799561 1663.884766,834.720337 1664.863159,834.874146 
	C1669.786255,835.648682 1671.144287,833.448730 1670.902954,828.735413 
	C1670.537231,821.595581 1671.552612,814.325500 1670.630127,807.287903 
	C1669.301392,797.151428 1675.845825,792.470398 1682.365601,786.984375 
	C1683.593018,788.780090 1684.655151,790.252014 1685.633179,791.778015 
	C1694.073608,804.948975 1702.564453,818.088379 1710.871948,831.342773 
	C1712.485107,833.916626 1714.281494,834.941406 1717.311523,834.884033 
	C1726.464478,834.710571 1735.623047,834.841003 1744.779053,834.798950 
	C1746.131226,834.792725 1747.481934,834.493652 1749.656128,834.230530 
	C1733.719360,810.529907 1718.330322,787.643555 1702.835083,764.599548 
	C1717.138306,748.063660 1731.225098,731.777893 1746.259277,714.396973 
	C1733.876953,714.396973 1722.953369,714.196655 1712.047729,714.551331 
	C1709.613892,714.630493 1706.557129,716.057983 1704.954956,717.887390 
	C1694.429688,729.906372 1684.240356,742.219299 1673.887207,754.390137 
	C1672.972412,755.465515 1671.670654,756.211731 1670.687012,756.166748 
	C1670.687012,725.590088 1670.687012,695.013367 1670.687012,664.206116 
	C1659.925171,664.206116 1649.951294,664.206116 1639.457031,664.214355 
	C1639.276855,664.482178 1639.096680,664.750061 1638.742798,665.939880 
M1291.903076,834.755371 
	C1297.559204,834.771729 1303.281250,835.343872 1308.856689,834.681335 
	C1318.541382,833.530640 1328.492310,832.731750 1337.691772,829.786682 
	C1355.753418,824.004211 1365.474121,809.626099 1366.060791,790.564331 
	C1366.678955,770.476318 1360.068848,759.968445 1341.821533,751.997803 
	C1341.597656,751.899963 1341.476074,751.568298 1341.306396,751.345459 
	C1354.090820,741.963806 1356.455444,739.540588 1359.390503,732.820312 
	C1368.902710,711.040283 1358.351562,686.484680 1335.911011,678.029053 
	C1326.578857,674.512695 1316.952393,673.283386 1306.493774,673.224731 
	C1286.437622,673.224731 1266.381348,673.224731 1246.333374,673.224731 
	C1246.333374,727.259766 1246.333374,780.774841 1246.333374,834.581726 
	C1261.436401,834.581726 1276.206543,834.581726 1291.903076,834.755371 
M354.500000,631.002502 
	C343.668610,631.005737 332.836609,630.934692 322.005951,631.025513 
	C283.902802,631.344910 252.070267,663.371399 252.010880,701.472717 
	C251.960236,733.966980 251.970459,766.461426 252.007202,798.955688 
	C252.051376,838.012451 283.788025,869.833923 322.955658,869.969788 
	C355.116302,870.081360 387.277924,870.081909 419.438568,869.969543 
	C458.980438,869.831482 490.828308,837.858826 490.929810,798.248230 
	C491.011810,766.254089 491.016724,734.259338 490.926819,702.265198 
	C490.816681,663.078186 458.750977,631.131592 419.488770,631.016724 
	C398.159363,630.954346 376.829590,631.003601 354.500000,631.002502 
M531.826172,805.499939 
	C531.826172,815.106201 531.826172,824.712402 531.826172,834.517700 
	C543.160156,834.517700 553.884644,834.517700 565.162109,834.517700 
	C565.162109,812.493958 565.162109,790.767029 565.162109,768.591125 
	C586.637939,768.591125 607.564209,768.591125 628.657349,768.591125 
	C628.657349,759.435669 628.657349,750.743469 628.657349,741.616333 
	C607.357483,741.616333 586.437683,741.616333 565.314087,741.616333 
	C565.314087,727.606445 565.314087,714.037781 565.314087,699.903748 
	C589.266113,699.903748 612.974304,699.903748 636.672241,699.903748 
	C636.672241,690.621826 636.672241,681.910400 636.672241,673.304382 
	C601.566711,673.304382 566.841675,673.304382 532.198669,673.304382 
	C532.036072,673.961182 531.889893,674.276184 531.889709,674.591370 
	C531.861511,717.894226 531.844116,761.197021 531.826172,805.499939 
M1436.586304,712.243164 
	C1433.432739,712.509155 1430.246948,712.574829 1427.131226,713.075806 
	C1413.556396,715.258179 1401.460449,720.260559 1393.100708,731.863770 
	C1389.227173,737.240173 1387.019043,743.229614 1387.129639,749.945679 
	C1387.874146,750.231079 1388.327515,750.553955 1388.783569,750.557678 
	C1397.447754,750.627258 1406.115234,750.539185 1414.774902,750.763306 
	C1417.859253,750.843079 1418.775635,749.595337 1419.855835,746.836243 
	C1421.050171,743.785706 1423.205078,740.580933 1425.844727,738.734314 
	C1431.793945,734.572327 1442.907349,735.277710 1448.127686,739.370178 
	C1453.492310,743.575500 1455.739868,753.078796 1453.068970,761.243835 
	C1447.720093,761.243835 1442.226807,761.070007 1436.748413,761.279785 
	C1425.027466,761.728455 1413.479004,763.131836 1402.937500,768.875732 
	C1382.516357,780.002930 1377.848755,807.853149 1393.617554,824.391296 
	C1408.572754,840.076172 1435.836792,841.359131 1452.322388,827.169067 
	C1453.250122,826.370544 1454.287720,825.699707 1455.471558,824.823364 
	C1455.969116,826.480042 1456.461914,827.572083 1456.610352,828.709167 
	C1457.247070,833.585815 1459.816406,835.271240 1464.780762,834.929138 
	C1471.416138,834.471863 1478.106323,834.839600 1484.772461,834.784119 
	C1486.812500,834.767151 1488.850586,834.523743 1491.517334,834.341064 
	C1484.401733,817.324402 1486.894897,800.178284 1486.475830,783.298462 
	C1486.194702,771.972961 1486.663330,760.612793 1485.982300,749.317261 
	C1485.110107,734.852417 1477.720337,724.305664 1464.701660,717.800049 
	C1456.140869,713.522095 1446.937744,712.380432 1436.586304,712.243164 
M1129.772949,713.774963 
	C1099.372925,707.065796 1072.617798,721.841492 1063.483032,750.725586 
	C1058.650391,766.006165 1058.583008,781.580688 1062.596191,797.073669 
	C1065.075317,806.645142 1069.980957,815.002441 1077.501709,821.450867 
	C1098.422974,839.389099 1121.852173,841.010315 1146.679321,831.180908 
	C1154.692627,828.008301 1161.195679,822.617676 1166.425415,815.203430 
	C1161.164673,809.340759 1156.084229,803.679016 1150.915405,797.918762 
	C1138.528442,810.797241 1124.182739,814.787170 1107.991089,807.874268 
	C1098.625244,803.875671 1093.956543,795.701843 1092.778076,784.940125 
	C1118.354736,784.940125 1143.444336,784.940125 1169.451416,784.940125 
	C1168.927490,775.304321 1168.996704,766.139893 1167.828491,757.135864 
	C1164.886963,734.461121 1151.325195,719.065613 1129.772949,713.774963 
M1510.346924,830.171814 
	C1509.812866,833.992981 1511.610596,835.027466 1515.237183,834.910706 
	C1522.557739,834.675110 1529.905396,834.567200 1537.214478,834.941528 
	C1541.781372,835.175415 1542.786377,833.486267 1542.755615,829.227600 
	C1542.579102,804.745850 1542.926880,780.257812 1542.514160,755.781738 
	C1542.390137,748.433655 1545.811157,743.715088 1551.509644,741.153687 
	C1555.975586,739.146301 1561.488647,738.575867 1566.472290,738.799194 
	C1576.653931,739.255676 1581.338135,744.507080 1581.972656,754.710693 
	C1582.106812,756.868835 1582.066406,759.039246 1582.067017,761.204041 
	C1582.072998,783.688477 1582.063477,806.172852 1582.084595,828.657288 
	C1582.086426,830.573669 1582.278198,832.489929 1582.381226,834.397095 
	C1593.220703,834.397095 1603.450317,834.397095 1613.797729,834.397095 
	C1613.939453,832.846436 1614.135620,831.700562 1614.135376,830.554749 
	C1614.129028,805.239319 1614.326050,779.920410 1613.926270,754.610901 
	C1613.820190,747.891541 1612.459473,741.033447 1610.615845,734.539734 
	C1608.260498,726.243225 1603.082520,719.615662 1594.942627,716.083679 
	C1582.556396,710.709106 1569.880737,710.704834 1557.638184,716.208740 
	C1552.069214,718.712402 1547.232300,722.844238 1541.785767,726.419678 
	C1541.384399,722.625671 1540.986694,718.865479 1540.512329,714.380554 
	C1532.914795,714.380554 1525.465820,714.379578 1518.016846,714.380859 
	C1510.348511,714.382202 1510.344849,714.383179 1510.344604,721.812683 
	C1510.343750,757.621155 1510.344849,793.429688 1510.346924,830.171814 
M925.560425,825.161987 
	C926.141479,824.652893 926.722595,824.143738 927.812073,823.189148 
	C928.352539,827.369995 928.809204,830.902588 929.264404,834.423767 
	C939.301941,834.423767 949.039246,834.423767 958.715088,834.423767 
	C958.715088,794.311279 958.715088,754.589844 958.715088,714.725342 
	C948.040527,714.725342 937.771484,714.725342 926.989624,714.725342 
	C926.989624,716.786072 926.989624,718.577454 926.989624,720.368896 
	C926.990051,744.866943 926.761597,769.368530 927.133301,793.860962 
	C927.242004,801.023499 924.116943,805.772400 918.197021,807.821411 
	C912.564453,809.770996 906.199707,810.710632 900.255310,810.371216 
	C892.986267,809.956177 888.852112,804.796814 887.953369,797.426392 
	C887.571289,794.293091 887.420105,791.114075 887.414001,787.955261 
	C887.370117,765.123840 887.442139,742.291931 887.284241,719.461487 
	C887.272583,717.782654 885.799927,714.690491 884.921265,714.659241 
	C875.158936,714.312866 865.379761,714.441101 855.186523,714.441101 
	C855.186523,716.994995 855.186523,718.800964 855.186523,720.606934 
	C855.186523,742.938477 855.137634,765.270264 855.223083,787.601501 
	C855.242859,792.756165 855.369263,797.957031 856.060059,803.053528 
	C857.849915,816.259705 862.935669,827.890381 876.107788,833.099243 
	C893.585938,840.010986 910.364136,838.723083 925.560425,825.161987 
M799.400879,832.133789 
	C811.486938,838.657043 824.112000,837.688782 836.828125,834.677490 
	C837.803101,834.446594 839.182678,833.030396 839.206604,832.134033 
	C839.400452,824.857605 839.315491,817.573792 839.315491,810.039795 
	C836.743835,810.155457 834.765320,810.235779 832.787781,810.334839 
	C820.690002,810.940857 817.796753,808.313782 817.753296,796.348938 
	C817.691650,779.360352 817.735840,762.371338 817.734863,745.382507 
	C817.734680,743.103699 817.734863,740.824829 817.734863,737.877197 
	C824.853027,737.877197 831.399048,737.877197 837.777588,737.877197 
	C837.777588,729.774048 837.777588,722.351868 837.777588,714.339966 
	C831.050415,714.339966 824.642090,714.339966 817.715454,714.339966 
	C817.715454,704.334717 817.715454,694.921509 817.715454,685.241821 
	C806.788635,685.241821 796.405090,685.241821 785.456360,685.241821 
	C785.456360,694.930969 785.456360,704.348755 785.456360,714.460815 
	C779.367126,714.460815 773.813538,714.460815 768.376709,714.460815 
	C768.376709,722.738586 768.376709,730.300232 768.376709,738.274414 
	C774.218201,738.274414 779.657654,738.274414 785.534546,738.274414 
	C785.534546,740.846069 785.523499,742.990356 785.536316,745.134460 
	C785.661804,766.116577 785.513306,787.105652 786.043335,808.077637 
	C786.288757,817.789856 790.266357,826.163818 799.400879,832.133789 
M983.364014,776.499817 
	C983.364014,795.762512 983.364014,815.025146 983.364014,834.541382 
	C994.319275,834.541382 1004.557007,834.541382 1015.207764,834.541382 
	C1015.305542,832.343323 1015.466736,830.385010 1015.468323,828.426636 
	C1015.486206,806.111145 1015.690552,783.792480 1015.362061,761.481812 
	C1015.251709,753.989624 1018.637939,749.116089 1024.940918,746.751648 
	C1029.938110,744.877075 1035.561279,744.541931 1040.950806,743.889954 
	C1044.169434,743.500671 1047.473633,743.818604 1051.242188,743.818604 
	C1051.242188,734.830811 1051.130127,726.012634 1051.303833,717.200134 
	C1051.363525,714.174622 1050.177246,713.234741 1047.350708,712.806152 
	C1035.473633,711.005432 1025.669678,714.409668 1018.064148,723.825684 
	C1017.201965,724.893127 1016.271606,725.905518 1014.654785,727.772705 
	C1014.375732,724.155518 1013.914185,721.682861 1014.060486,719.246765 
	C1014.278992,715.609619 1013.058228,714.215454 1009.248962,714.364197 
	C1002.265259,714.636963 995.252319,714.675964 988.272888,714.352478 
	C984.141541,714.160950 983.257690,715.746887 983.290771,719.545105 
	C983.453247,738.195435 983.364258,756.847961 983.364014,776.499817 
z"/>
<path fill="#3B4323" opacity="1.000000" stroke="none" 
	d="
M355.000000,631.002502 
	C376.829590,631.003601 398.159363,630.954346 419.488770,631.016724 
	C458.750977,631.131592 490.816681,663.078186 490.926819,702.265198 
	C491.016724,734.259338 491.011810,766.254089 490.929810,798.248230 
	C490.828308,837.858826 458.980438,869.831482 419.438568,869.969543 
	C387.277924,870.081909 355.116302,870.081360 322.955658,869.969788 
	C283.788025,869.833923 252.051376,838.012451 252.007202,798.955688 
	C251.970459,766.461426 251.960236,733.966980 252.010880,701.472717 
	C252.070267,663.371399 283.902802,631.344910 322.005951,631.025513 
	C332.836609,630.934692 343.668610,631.005737 355.000000,631.002502 
M433.022461,786.287476 
	C423.864197,782.674377 414.549866,784.382446 410.657104,792.217346 
	C407.750061,798.068298 403.973877,798.465210 398.872620,798.148010 
	C396.714417,798.013855 394.460846,798.477539 392.400146,798.010193 
	C390.779175,797.642456 388.717224,796.620972 387.999695,795.276794 
	C381.916016,783.880188 370.839813,781.202332 359.831390,788.492249 
	C358.757935,789.203125 356.139496,789.231384 355.338837,788.449463 
	C346.931122,780.238708 338.747772,771.798157 330.544312,763.463745 
	C331.714935,761.545044 332.544067,760.310181 333.250183,759.008606 
	C338.085449,750.095764 334.958496,739.091675 325.852722,734.677490 
	C322.575592,733.088867 321.355652,731.292786 321.768127,727.888306 
	C321.967102,726.245911 321.949677,724.543640 321.773438,722.895935 
	C321.314087,718.601501 322.145599,715.774536 326.798431,713.600769 
	C334.016357,710.228699 337.030945,701.224609 334.820099,693.413574 
	C332.710815,685.961365 325.546570,680.542419 317.680267,680.449219 
	C309.830963,680.356201 302.762909,685.599609 300.454529,693.228149 
	C298.121582,700.937927 301.042053,710.025269 308.278595,713.495422 
	C313.049744,715.783386 314.006470,718.708618 313.572449,723.203186 
	C313.365173,725.349976 313.862427,727.604614 313.414825,729.675110 
	C313.090576,731.174744 312.058258,733.026367 310.790405,733.735779 
	C301.917694,738.700562 297.952820,746.575195 300.326691,755.178101 
	C302.717316,763.841919 310.215607,768.597900 320.266510,768.248657 
	C322.125214,768.184082 324.519592,769.043701 325.840149,770.327148 
	C334.559662,778.802246 343.106659,787.458191 351.554504,796.205322 
	C352.644196,797.333679 353.368805,799.329346 353.360565,800.918579 
	C353.312042,810.251160 358.356262,817.656067 366.586456,819.869019 
	C375.193420,822.183167 383.441559,818.266479 387.802490,809.876892 
	C388.372711,808.779907 389.263092,807.050537 390.076965,807.008606 
	C395.393585,806.735046 400.805176,806.339783 406.017670,807.114746 
	C407.761597,807.373962 409.001404,810.950623 410.497589,812.991821 
	C410.988434,813.661438 411.519287,814.312622 412.103058,814.901672 
	C417.279083,820.125122 423.555298,821.737976 430.452942,819.596252 
	C437.393677,817.441040 441.730316,812.384583 442.776062,805.209717 
	C443.949127,797.161377 440.589996,790.946350 433.022461,786.287476 
M355.491272,758.796143 
	C361.407440,767.924377 370.806305,770.892334 379.514252,766.382080 
	C388.615234,761.668213 391.463837,752.106384 387.077728,741.561829 
	C386.627533,740.479492 386.637787,738.473267 387.327728,737.760193 
	C395.748474,729.057922 404.336426,720.517517 412.854187,711.962097 
	C413.922150,712.575989 414.484680,712.894104 415.042236,713.220703 
	C423.447266,718.144714 432.108643,717.178589 438.208862,710.635559 
	C443.896484,704.535034 444.625610,695.421326 439.976868,688.537354 
	C435.166840,681.414551 426.349396,678.664185 418.422211,681.813965 
	C410.160522,685.096741 406.152618,692.881165 407.450836,702.471741 
	C407.651733,703.955994 406.936890,706.057678 405.888000,707.139221 
	C397.779297,715.500366 389.542694,723.741150 381.170990,731.838562 
	C380.150757,732.825317 377.957825,733.360291 376.540588,733.048706 
	C369.022003,731.395386 362.580872,733.044861 357.624176,738.961548 
	C352.804626,744.714478 352.132935,751.235718 355.491272,758.796143 
M367.529602,680.933228 
	C356.836853,684.281006 351.472717,692.992676 353.976257,702.944702 
	C356.299194,712.178772 365.524689,717.906738 375.062805,716.036987 
	C384.523315,714.182373 390.700317,704.902039 389.015808,695.073914 
	C387.398865,685.639954 378.776337,679.698730 367.529602,680.933228 
M442.512634,754.652588 
	C445.971588,741.521484 433.007019,728.477539 418.864288,733.586121 
	C411.104187,736.389282 406.182465,744.401306 407.144775,752.417725 
	C408.101776,760.389526 414.538971,767.064209 422.263794,768.094604 
	C431.534180,769.331055 438.639130,764.826721 442.512634,754.652588 
M303.283325,813.087830 
	C309.720978,820.234680 317.563019,822.246582 325.182739,818.706238 
	C332.354523,815.373901 336.758911,807.404724 335.550751,799.946594 
	C334.338623,792.464355 329.115601,786.592041 322.030426,784.937622 
	C314.467133,783.171509 308.062775,785.392273 303.458344,791.520996 
	C298.446564,798.191833 298.422241,805.351501 303.283325,813.087830 
z"/>
<path fill="#C1CF4E" opacity="1.000000" stroke="none" 
	d="
M531.826172,804.999878 
	C531.844116,761.197021 531.861511,717.894226 531.889709,674.591370 
	C531.889893,674.276184 532.036072,673.961182 532.198669,673.304382 
	C566.841675,673.304382 601.566711,673.304382 636.672241,673.304382 
	C636.672241,681.910400 636.672241,690.621826 636.672241,699.903748 
	C612.974304,699.903748 589.266113,699.903748 565.314087,699.903748 
	C565.314087,714.037781 565.314087,727.606445 565.314087,741.616333 
	C586.437683,741.616333 607.357483,741.616333 628.657349,741.616333 
	C628.657349,750.743469 628.657349,759.435669 628.657349,768.591125 
	C607.564209,768.591125 586.637939,768.591125 565.162109,768.591125 
	C565.162109,790.767029 565.162109,812.493958 565.162109,834.517700 
	C553.884644,834.517700 543.160156,834.517700 531.826172,834.517700 
	C531.826172,824.712402 531.826172,815.106201 531.826172,804.999878 
z"/>
<path fill="#70A84A" opacity="1.000000" stroke="none" 
	d="
M1437.058105,712.241821 
	C1446.937744,712.380432 1456.140869,713.522095 1464.701660,717.800049 
	C1477.720337,724.305664 1485.110107,734.852417 1485.982300,749.317261 
	C1486.663330,760.612793 1486.194702,771.972961 1486.475830,783.298462 
	C1486.894897,800.178284 1484.401733,817.324402 1491.517334,834.341064 
	C1488.850586,834.523743 1486.812500,834.767151 1484.772461,834.784119 
	C1478.106323,834.839600 1471.416138,834.471863 1464.780762,834.929138 
	C1459.816406,835.271240 1457.247070,833.585815 1456.610352,828.709167 
	C1456.461914,827.572083 1455.969116,826.480042 1455.471558,824.823364 
	C1454.287720,825.699707 1453.250122,826.370544 1452.322388,827.169067 
	C1435.836792,841.359131 1408.572754,840.076172 1393.617554,824.391296 
	C1377.848755,807.853149 1382.516357,780.002930 1402.937500,768.875732 
	C1413.479004,763.131836 1425.027466,761.728455 1436.748413,761.279785 
	C1442.226807,761.070007 1447.720093,761.243835 1453.068970,761.243835 
	C1455.739868,753.078796 1453.492310,743.575500 1448.127686,739.370178 
	C1442.907349,735.277710 1431.793945,734.572327 1425.844727,738.734314 
	C1423.205078,740.580933 1421.050171,743.785706 1419.855835,746.836243 
	C1418.775635,749.595337 1417.859253,750.843079 1414.774902,750.763306 
	C1406.115234,750.539185 1397.447754,750.627258 1388.783569,750.557678 
	C1388.327515,750.553955 1387.874146,750.231079 1387.129639,749.945679 
	C1387.019043,743.229614 1389.227173,737.240173 1393.100708,731.863770 
	C1401.460449,720.260559 1413.556396,715.258179 1427.131226,713.075806 
	C1430.246948,712.574829 1433.432739,712.509155 1437.058105,712.241821 
M1454.150757,794.357544 
	C1454.150757,789.764221 1454.150757,785.170959 1454.150757,780.045288 
	C1449.869263,780.045288 1446.189331,779.600891 1442.661255,780.143494 
	C1436.515015,781.088745 1430.096191,781.778748 1424.466064,784.166382 
	C1417.857422,786.969055 1415.138550,795.425232 1417.070190,802.536682 
	C1418.681396,808.469116 1424.122559,812.098206 1431.708374,812.192993 
	C1433.694092,812.217834 1435.712158,812.157654 1437.665405,811.834412 
	C1447.933716,810.134705 1454.118652,803.880737 1454.150757,794.357544 
z"/>
<path fill="#8EB74B" opacity="1.000000" stroke="none" 
	d="
M1130.183105,713.854370 
	C1151.325195,719.065613 1164.886963,734.461121 1167.828491,757.135864 
	C1168.996704,766.139893 1168.927490,775.304321 1169.451416,784.940125 
	C1143.444336,784.940125 1118.354736,784.940125 1092.778076,784.940125 
	C1093.956543,795.701843 1098.625244,803.875671 1107.991089,807.874268 
	C1124.182739,814.787170 1138.528442,810.797241 1150.915405,797.918762 
	C1156.084229,803.679016 1161.164673,809.340759 1166.425415,815.203430 
	C1161.195679,822.617676 1154.692627,828.008301 1146.679321,831.180908 
	C1121.852173,841.010315 1098.422974,839.389099 1077.501709,821.450867 
	C1069.980957,815.002441 1065.075317,806.645142 1062.596191,797.073669 
	C1058.583008,781.580688 1058.650391,766.006165 1063.483032,750.725586 
	C1072.617798,721.841492 1099.372925,707.065796 1130.183105,713.854370 
M1095.377197,753.031799 
	C1094.525757,756.177734 1093.674438,759.323669 1092.740356,762.775269 
	C1107.965454,762.775269 1122.515503,762.775269 1137.026978,762.775269 
	C1138.684448,746.585144 1127.944214,736.131775 1112.610596,738.507568 
	C1104.198975,739.810730 1098.896240,744.737915 1095.377197,753.031799 
z"/>
<path fill="#62A24A" opacity="1.000000" stroke="none" 
	d="
M1510.346191,829.704956 
	C1510.344849,793.429688 1510.343750,757.621155 1510.344604,721.812683 
	C1510.344849,714.383179 1510.348511,714.382202 1518.016846,714.380859 
	C1525.465820,714.379578 1532.914795,714.380554 1540.512329,714.380554 
	C1540.986694,718.865479 1541.384399,722.625671 1541.785767,726.419678 
	C1547.232300,722.844238 1552.069214,718.712402 1557.638184,716.208740 
	C1569.880737,710.704834 1582.556396,710.709106 1594.942627,716.083679 
	C1603.082520,719.615662 1608.260498,726.243225 1610.615845,734.539734 
	C1612.459473,741.033447 1613.820190,747.891541 1613.926270,754.610901 
	C1614.326050,779.920410 1614.129028,805.239319 1614.135376,830.554749 
	C1614.135620,831.700562 1613.939453,832.846436 1613.797729,834.397095 
	C1603.450317,834.397095 1593.220703,834.397095 1582.381226,834.397095 
	C1582.278198,832.489929 1582.086426,830.573669 1582.084595,828.657288 
	C1582.063477,806.172852 1582.072998,783.688477 1582.067017,761.204041 
	C1582.066406,759.039246 1582.106812,756.868835 1581.972656,754.710693 
	C1581.338135,744.507080 1576.653931,739.255676 1566.472290,738.799194 
	C1561.488647,738.575867 1555.975586,739.146301 1551.509644,741.153687 
	C1545.811157,743.715088 1542.390137,748.433655 1542.514160,755.781738 
	C1542.926880,780.257812 1542.579102,804.745850 1542.755615,829.227600 
	C1542.786377,833.486267 1541.781372,835.175415 1537.214478,834.941528 
	C1529.905396,834.567200 1522.557739,834.675110 1515.237183,834.910706 
	C1511.610596,835.027466 1509.812866,833.992981 1510.346191,829.704956 
z"/>
<path fill="#9EBE4D" opacity="1.000000" stroke="none" 
	d="
M925.319092,825.412415 
	C910.364136,838.723083 893.585938,840.010986 876.107788,833.099243 
	C862.935669,827.890381 857.849915,816.259705 856.060059,803.053528 
	C855.369263,797.957031 855.242859,792.756165 855.223083,787.601501 
	C855.137634,765.270264 855.186523,742.938477 855.186523,720.606934 
	C855.186523,718.800964 855.186523,716.994995 855.186523,714.441101 
	C865.379761,714.441101 875.158936,714.312866 884.921265,714.659241 
	C885.799927,714.690491 887.272583,717.782654 887.284241,719.461487 
	C887.442139,742.291931 887.370117,765.123840 887.414001,787.955261 
	C887.420105,791.114075 887.571289,794.293091 887.953369,797.426392 
	C888.852112,804.796814 892.986267,809.956177 900.255310,810.371216 
	C906.199707,810.710632 912.564453,809.770996 918.197021,807.821411 
	C924.116943,805.772400 927.242004,801.023499 927.133301,793.860962 
	C926.761597,769.368530 926.990051,744.866943 926.989624,720.368896 
	C926.989624,718.577454 926.989624,716.786072 926.989624,714.725342 
	C937.771484,714.725342 948.040527,714.725342 958.715088,714.725342 
	C958.715088,754.589844 958.715088,794.311279 958.715088,834.423767 
	C949.039246,834.423767 939.301941,834.423767 929.264404,834.423767 
	C928.809204,830.902588 928.352539,827.369995 927.812073,823.189148 
	C926.722595,824.143738 926.141479,824.652893 925.319092,825.412415 
z"/>
<path fill="#81B14B" opacity="1.000000" stroke="none" 
	d="
M1290.976807,834.581726 
	C1276.206543,834.581726 1261.436401,834.581726 1246.333374,834.581726 
	C1246.333374,780.774841 1246.333374,727.259766 1246.333374,673.224731 
	C1266.381348,673.224731 1286.437622,673.224731 1306.761719,674.020264 
	C1306.482300,683.277344 1307.367920,691.970215 1302.527344,699.867920 
	C1294.634155,699.922119 1287.206299,699.922119 1279.694824,699.922119 
	C1279.694824,713.916321 1279.694824,727.137817 1279.694824,740.831421 
	C1283.407104,740.831421 1286.710693,740.804077 1290.013794,740.839233 
	C1293.342285,740.874634 1296.670044,740.972046 1299.999023,741.495911 
	C1299.332520,749.285522 1298.665283,756.621643 1297.535156,764.033936 
	C1291.317749,764.110168 1285.563232,764.110168 1279.675049,764.110168 
	C1279.675049,779.177795 1279.675049,793.391663 1279.675049,808.140320 
	C1284.372925,808.140320 1288.683472,808.140320 1292.995850,808.587646 
	C1292.323975,817.550598 1291.650391,826.066162 1290.976807,834.581726 
z"/>
<path fill="#7AAD4A" opacity="1.000000" stroke="none" 
	d="
M1302.992920,699.813660 
	C1307.367920,691.970215 1306.482300,683.277344 1307.037964,674.348511 
	C1316.952393,673.283386 1326.578857,674.512695 1335.911011,678.029053 
	C1358.351562,686.484680 1368.902710,711.040283 1359.390503,732.820312 
	C1356.455444,739.540588 1354.090820,741.963806 1341.306396,751.345459 
	C1341.476074,751.568298 1341.597656,751.899963 1341.821533,751.997803 
	C1360.068848,759.968445 1366.678955,770.476318 1366.060791,790.564331 
	C1365.474121,809.626099 1355.753418,824.004211 1337.691772,829.786682 
	C1328.492310,832.731750 1318.541382,833.530640 1308.856689,834.681335 
	C1303.281250,835.343872 1297.559204,834.771729 1291.439941,834.668579 
	C1291.650391,826.066162 1292.323975,817.550598 1293.460327,808.517822 
	C1301.548340,807.652039 1309.300781,808.050110 1316.768311,806.776978 
	C1327.500854,804.947266 1333.264404,796.634521 1332.937988,785.462463 
	C1332.589722,773.540466 1326.761353,766.430542 1315.397705,764.888489 
	C1309.661255,764.110107 1303.801880,764.239014 1297.998047,763.957642 
	C1298.665283,756.621643 1299.332520,749.285522 1300.441162,741.411987 
	C1306.752075,739.935303 1312.879883,739.757690 1318.430298,737.876587 
	C1326.550049,735.124512 1329.655029,728.395630 1329.070557,718.041138 
	C1328.589600,709.520264 1324.749390,704.121765 1316.728271,701.917969 
	C1312.291992,700.699036 1307.580444,700.482239 1302.992920,699.813660 
z"/>
<path fill="#AAC44C" opacity="1.000000" stroke="none" 
	d="
M799.081299,831.956665 
	C790.266357,826.163818 786.288757,817.789856 786.043335,808.077637 
	C785.513306,787.105652 785.661804,766.116577 785.536316,745.134460 
	C785.523499,742.990356 785.534546,740.846069 785.534546,738.274414 
	C779.657654,738.274414 774.218201,738.274414 768.376709,738.274414 
	C768.376709,730.300232 768.376709,722.738586 768.376709,714.460815 
	C773.813538,714.460815 779.367126,714.460815 785.456360,714.460815 
	C785.456360,704.348755 785.456360,694.930969 785.456360,685.241821 
	C796.405090,685.241821 806.788635,685.241821 817.715454,685.241821 
	C817.715454,694.921509 817.715454,704.334717 817.715454,714.339966 
	C824.642090,714.339966 831.050415,714.339966 837.777588,714.339966 
	C837.777588,722.351868 837.777588,729.774048 837.777588,737.877197 
	C831.399048,737.877197 824.853027,737.877197 817.734863,737.877197 
	C817.734863,740.824829 817.734680,743.103699 817.734863,745.382507 
	C817.735840,762.371338 817.691650,779.360352 817.753296,796.348938 
	C817.796753,808.313782 820.690002,810.940857 832.787781,810.334839 
	C834.765320,810.235779 836.743835,810.155457 839.315491,810.039795 
	C839.315491,817.573792 839.400452,824.857605 839.206604,832.134033 
	C839.182678,833.030396 837.803101,834.446594 836.828125,834.677490 
	C824.112000,837.688782 811.486938,838.657043 799.081299,831.956665 
z"/>
<path fill="#579B48" opacity="1.000000" stroke="none" 
	d="
M1670.548706,757.110840 
	C1671.670654,756.211731 1672.972412,755.465515 1673.887207,754.390137 
	C1684.240356,742.219299 1694.429688,729.906372 1704.954956,717.887390 
	C1706.557129,716.057983 1709.613892,714.630493 1712.047729,714.551331 
	C1722.953369,714.196655 1733.876953,714.396973 1746.259277,714.396973 
	C1731.225098,731.777893 1717.138306,748.063660 1702.835083,764.599548 
	C1718.330322,787.643555 1733.719360,810.529907 1749.656128,834.230530 
	C1747.481934,834.493652 1746.131226,834.792725 1744.779053,834.798950 
	C1735.623047,834.841003 1726.464478,834.710571 1717.311523,834.884033 
	C1714.281494,834.941406 1712.485107,833.916626 1710.871948,831.342773 
	C1702.564453,818.088379 1694.073608,804.948975 1685.633179,791.778015 
	C1684.655151,790.252014 1683.593018,788.780090 1682.365601,786.984375 
	C1675.845825,792.470398 1669.301392,797.151428 1670.630127,807.287903 
	C1671.552612,814.325500 1670.537231,821.595581 1670.902954,828.735413 
	C1671.144287,833.448730 1669.786255,835.648682 1664.863159,834.874146 
	C1663.884766,834.720337 1662.869751,834.799561 1661.427246,834.263062 
	C1661.457031,827.986328 1661.833984,822.207764 1662.423218,816.450989 
	C1664.241821,798.680786 1666.079346,780.911804 1668.092163,763.163086 
	C1668.328369,761.079590 1669.702148,759.125122 1670.548706,757.110840 
z"/>
<path fill="#9EBE4D" opacity="1.000000" stroke="none" 
	d="
M983.364075,775.999756 
	C983.364258,756.847961 983.453247,738.195435 983.290771,719.545105 
	C983.257690,715.746887 984.141541,714.160950 988.272888,714.352478 
	C995.252319,714.675964 1002.265259,714.636963 1009.248962,714.364197 
	C1013.058228,714.215454 1014.278992,715.609619 1014.060486,719.246765 
	C1013.914185,721.682861 1014.375732,724.155518 1014.654785,727.772705 
	C1016.271606,725.905518 1017.201965,724.893127 1018.064148,723.825684 
	C1025.669678,714.409668 1035.473633,711.005432 1047.350708,712.806152 
	C1050.177246,713.234741 1051.363525,714.174622 1051.303833,717.200134 
	C1051.130127,726.012634 1051.242188,734.830811 1051.242188,743.818604 
	C1047.473633,743.818604 1044.169434,743.500671 1040.950806,743.889954 
	C1035.561279,744.541931 1029.938110,744.877075 1024.940918,746.751648 
	C1018.637939,749.116089 1015.251709,753.989624 1015.362061,761.481812 
	C1015.690552,783.792480 1015.486206,806.111145 1015.468323,828.426636 
	C1015.466736,830.385010 1015.305542,832.343323 1015.207764,834.541382 
	C1004.557007,834.541382 994.319275,834.541382 983.364014,834.541382 
	C983.364014,815.025146 983.364014,795.762512 983.364075,775.999756 
z"/>
<path fill="#62A24A" opacity="1.000000" stroke="none" 
	d="
M1670.617920,756.638794 
	C1669.702148,759.125122 1668.328369,761.079590 1668.092163,763.163086 
	C1666.079346,780.911804 1664.241821,798.680786 1662.423218,816.450989 
	C1661.833984,822.207764 1661.457031,827.986328 1660.981934,834.181152 
	C1654.831177,834.673035 1648.679443,834.669434 1642.532349,834.835999 
	C1639.798218,834.910095 1638.438965,833.911499 1638.667847,831.090454 
	C1638.694702,830.760254 1638.660400,830.425537 1638.660522,830.092896 
	C1638.687500,775.375244 1638.715210,720.657532 1639.019043,665.360352 
	C1639.538330,664.607788 1639.765625,664.416199 1639.977417,664.206116 
	C1649.951294,664.206116 1659.925171,664.206116 1670.687012,664.206116 
	C1670.687012,695.013367 1670.687012,725.590088 1670.617920,756.638794 
z"/>
<path fill="#AAC44C" opacity="1.000000" stroke="none" 
	d="
M692.985474,810.078186 
	C699.826416,811.496033 706.617249,811.429871 713.038635,808.481628 
	C719.331238,805.592468 723.110229,801.339233 722.976074,793.481445 
	C722.561096,769.164673 722.824097,744.836243 722.823853,720.512390 
	C722.823853,718.700684 722.823853,716.889038 722.823853,714.747925 
	C733.649475,714.747925 744.059387,714.747925 754.741821,714.747925 
	C754.741821,754.689270 754.741821,794.422974 754.741821,834.497559 
	C744.855103,834.497559 735.104675,834.497559 724.976440,834.497559 
	C724.557617,830.963013 724.135193,827.397949 723.613708,822.996399 
	C714.754761,832.648621 704.107727,836.841003 691.391907,836.356873 
	C691.668457,827.212891 692.326965,818.645569 692.985474,810.078186 
z"/>
<path fill="#C1CF4E" opacity="1.000000" stroke="none" 
	d="
M692.645020,809.983643 
	C692.326965,818.645569 691.668457,827.212891 691.012939,836.281616 
	C667.173828,837.395325 652.404602,823.763550 651.434875,797.809937 
	C650.416321,770.546448 651.166931,743.216675 651.162170,715.915894 
	C651.162109,715.623230 651.401245,715.330566 651.651550,714.756226 
	C661.794739,714.756226 672.055237,714.756226 682.853455,714.756226 
	C682.941101,716.569519 683.097778,718.316040 683.099060,720.062683 
	C683.116516,743.703674 683.089478,767.344788 683.126526,790.985718 
	C683.138672,798.730408 684.472168,805.906555 692.645020,809.983643 
z"/>
<path fill="#579B48" opacity="1.000000" stroke="none" 
	d="
M1639.717285,664.210205 
	C1639.765625,664.416199 1639.538330,664.607788 1639.105957,664.899414 
	C1639.096680,664.750061 1639.276855,664.482178 1639.717285,664.210205 
z"/>
<path fill="#D0D64F" opacity="1.000000" stroke="none" 
	d="
M433.345184,786.482239 
	C440.589996,790.946350 443.949127,797.161377 442.776062,805.209717 
	C441.730316,812.384583 437.393677,817.441040 430.452942,819.596252 
	C423.555298,821.737976 417.279083,820.125122 412.103058,814.901672 
	C411.519287,814.312622 410.988434,813.661438 410.497589,812.991821 
	C409.001404,810.950623 407.761597,807.373962 406.017670,807.114746 
	C400.805176,806.339783 395.393585,806.735046 390.076965,807.008606 
	C389.263092,807.050537 388.372711,808.779907 387.802490,809.876892 
	C383.441559,818.266479 375.193420,822.183167 366.586456,819.869019 
	C358.356262,817.656067 353.312042,810.251160 353.360565,800.918579 
	C353.368805,799.329346 352.644196,797.333679 351.554504,796.205322 
	C343.106659,787.458191 334.559662,778.802246 325.840149,770.327148 
	C324.519592,769.043701 322.125214,768.184082 320.266510,768.248657 
	C310.215607,768.597900 302.717316,763.841919 300.326691,755.178101 
	C297.952820,746.575195 301.917694,738.700562 310.790405,733.735779 
	C312.058258,733.026367 313.090576,731.174744 313.414825,729.675110 
	C313.862427,727.604614 313.365173,725.349976 313.572449,723.203186 
	C314.006470,718.708618 313.049744,715.783386 308.278595,713.495422 
	C301.042053,710.025269 298.121582,700.937927 300.454529,693.228149 
	C302.762909,685.599609 309.830963,680.356201 317.680267,680.449219 
	C325.546570,680.542419 332.710815,685.961365 334.820099,693.413574 
	C337.030945,701.224609 334.016357,710.228699 326.798431,713.600769 
	C322.145599,715.774536 321.314087,718.601501 321.773438,722.895935 
	C321.949677,724.543640 321.967102,726.245911 321.768127,727.888306 
	C321.355652,731.292786 322.575592,733.088867 325.852722,734.677490 
	C334.958496,739.091675 338.085449,750.095764 333.250183,759.008606 
	C332.544067,760.310181 331.714935,761.545044 330.544312,763.463745 
	C338.747772,771.798157 346.931122,780.238708 355.338837,788.449463 
	C356.139496,789.231384 358.757935,789.203125 359.831390,788.492249 
	C370.839813,781.202332 381.916016,783.880188 387.999695,795.276794 
	C388.717224,796.620972 390.779175,797.642456 392.400146,798.010193 
	C394.460846,798.477539 396.714417,798.013855 398.872620,798.148010 
	C403.973877,798.465210 407.750061,798.068298 410.657104,792.217346 
	C414.549866,784.382446 423.864197,782.674377 433.345184,786.482239 
z"/>
<path fill="#D0D64F" opacity="1.000000" stroke="none" 
	d="
M355.311707,758.458557 
	C352.132935,751.235718 352.804626,744.714478 357.624176,738.961548 
	C362.580872,733.044861 369.022003,731.395386 376.540588,733.048706 
	C377.957825,733.360291 380.150757,732.825317 381.170990,731.838562 
	C389.542694,723.741150 397.779297,715.500366 405.888000,707.139221 
	C406.936890,706.057678 407.651733,703.955994 407.450836,702.471741 
	C406.152618,692.881165 410.160522,685.096741 418.422211,681.813965 
	C426.349396,678.664185 435.166840,681.414551 439.976868,688.537354 
	C444.625610,695.421326 443.896484,704.535034 438.208862,710.635559 
	C432.108643,717.178589 423.447266,718.144714 415.042236,713.220703 
	C414.484680,712.894104 413.922150,712.575989 412.854187,711.962097 
	C404.336426,720.517517 395.748474,729.057922 387.327728,737.760193 
	C386.637787,738.473267 386.627533,740.479492 387.077728,741.561829 
	C391.463837,752.106384 388.615234,761.668213 379.514252,766.382080 
	C370.806305,770.892334 361.407440,767.924377 355.311707,758.458557 
z"/>
<path fill="#D0D64F" opacity="1.000000" stroke="none" 
	d="
M367.922302,680.871826 
	C378.776337,679.698730 387.398865,685.639954 389.015808,695.073914 
	C390.700317,704.902039 384.523315,714.182373 375.062805,716.036987 
	C365.524689,717.906738 356.299194,712.178772 353.976257,702.944702 
	C351.472717,692.992676 356.836853,684.281006 367.922302,680.871826 
z"/>
<path fill="#D0D64F" opacity="1.000000" stroke="none" 
	d="
M442.381409,755.038086 
	C438.639130,764.826721 431.534180,769.331055 422.263794,768.094604 
	C414.538971,767.064209 408.101776,760.389526 407.144775,752.417725 
	C406.182465,744.401306 411.104187,736.389282 418.864288,733.586121 
	C433.007019,728.477539 445.971588,741.521484 442.381409,755.038086 
z"/>
<path fill="#D0D64F" opacity="1.000000" stroke="none" 
	d="
M303.076508,812.775940 
	C298.422241,805.351501 298.446564,798.191833 303.458344,791.520996 
	C308.062775,785.392273 314.467133,783.171509 322.030426,784.937622 
	C329.115601,786.592041 334.338623,792.464355 335.550751,799.946594 
	C336.758911,807.404724 332.354523,815.373901 325.182739,818.706238 
	C317.563019,822.246582 309.720978,820.234680 303.076508,812.775940 
z"/>
<path fill="#111111" opacity="1.000000" stroke="none" 
	d="
M1454.150757,794.830872 
	C1454.118652,803.880737 1447.933716,810.134705 1437.665405,811.834412 
	C1435.712158,812.157654 1433.694092,812.217834 1431.708374,812.192993 
	C1424.122559,812.098206 1418.681396,808.469116 1417.070190,802.536682 
	C1415.138550,795.425232 1417.857422,786.969055 1424.466064,784.166382 
	C1430.096191,781.778748 1436.515015,781.088745 1442.661255,780.143494 
	C1446.189331,779.600891 1449.869263,780.045288 1454.150757,780.045288 
	C1454.150757,785.170959 1454.150757,789.764221 1454.150757,794.830872 
z"/>
<path fill="#111111" opacity="1.000000" stroke="none" 
	d="
M1095.549683,752.689331 
	C1098.896240,744.737915 1104.198975,739.810730 1112.610596,738.507568 
	C1127.944214,736.131775 1138.684448,746.585144 1137.026978,762.775269 
	C1122.515503,762.775269 1107.965454,762.775269 1092.740356,762.775269 
	C1093.674438,759.323669 1094.525757,756.177734 1095.549683,752.689331 
z"/>
<path fill="#111111" opacity="1.000000" stroke="none" 
	d="
M1297.535156,764.033936 
	C1303.801880,764.239014 1309.661255,764.110107 1315.397705,764.888489 
	C1326.761353,766.430542 1332.589722,773.540466 1332.937988,785.462463 
	C1333.264404,796.634521 1327.500854,804.947266 1316.768311,806.776978 
	C1309.300781,808.050110 1301.548340,807.652039 1293.458618,808.070435 
	C1288.683472,808.140320 1284.372925,808.140320 1279.675049,808.140320 
	C1279.675049,793.391663 1279.675049,779.177795 1279.675049,764.110168 
	C1285.563232,764.110168 1291.317749,764.110168 1297.535156,764.033936 
z"/>
<path fill="#111111" opacity="1.000000" stroke="none" 
	d="
M1302.527344,699.867920 
	C1307.580444,700.482239 1312.291992,700.699036 1316.728271,701.917969 
	C1324.749390,704.121765 1328.589600,709.520264 1329.070557,718.041138 
	C1329.655029,728.395630 1326.550049,735.124512 1318.430298,737.876587 
	C1312.879883,739.757690 1306.752075,739.935303 1300.440308,740.958435 
	C1296.670044,740.972046 1293.342285,740.874634 1290.013794,740.839233 
	C1286.710693,740.804077 1283.407104,740.831421 1279.694824,740.831421 
	C1279.694824,727.137817 1279.694824,713.916321 1279.694824,699.922119 
	C1287.206299,699.922119 1294.634155,699.922119 1302.527344,699.867920 
z"/>
</svg>